{
    "asset" : {
        "generator" : "Khronos glTF Blender I/O v1.5.17",
        "version" : "2.0"
    },
    "scene" : 0,
    "scenes" : [
        {
            "name" : "Scene",
            "nodes" : [
                0,
                1,
                2
            ]
        }
    ],
    "nodes" : [
        {
            "name" : "Light",
            "rotation" : [
                0.16907575726509094,
                0.7558803558349609,
                -0.27217137813568115,
                0.570947527885437
            ],
            "translation" : [
                1.5702744722366333,
                5.97560977935791,
                5.856389045715332
            ]
        },
        {
            "name" : "Camera",
            "rotation" : [
                0.483536034822464,
                0.33687159419059753,
                -0.20870360732078552,
                0.7804827094078064
            ],
            "translation" : [
                7.358891487121582,
                4.958309173583984,
                6.925790786743164
            ]
        },
        {
            "mesh" : 0,
            "name" : "Cube",
            "translation" : [
                0,
                -0.12728430330753326,
                -0.018802795559167862
            ]
        }
    ],
    "meshes" : [
        {
            "name" : "Cube.001",
            "primitives" : [
                {
                    "attributes" : {
                        "POSITION" : 0,
                        "NORMAL" : 1,
                        "TEXCOORD_0" : 2
                    },
                    "indices" : 3
                }
            ]
        }
    ],
    "accessors" : [
        {
            "bufferView" : 0,
            "componentType" : 5126,
            "count" : 1800,
            "max" : [
                1.8135672807693481,
                4.9522528648376465,
                0.36705461144447327
            ],
            "min" : [
                -0.015311547555029392,
                0.1224702000617981,
                -0.32529115676879883
            ],
            "type" : "VEC3"
        },
        {
            "bufferView" : 1,
            "componentType" : 5126,
            "count" : 1800,
            "type" : "VEC3"
        },
        {
            "bufferView" : 2,
            "componentType" : 5126,
            "count" : 1800,
            "type" : "VEC2"
        },
        {
            "bufferView" : 3,
            "componentType" : 5123,
            "count" : 7164,
            "type" : "SCALAR"
        }
    ],
    "bufferViews" : [
        {
            "buffer" : 0,
            "byteLength" : 21600,
            "byteOffset" : 0
        },
        {
            "buffer" : 0,
            "byteLength" : 21600,
            "byteOffset" : 21600
        },
        {
            "buffer" : 0,
            "byteLength" : 14400,
            "byteOffset" : 43200
        },
        {
            "buffer" : 0,
            "byteLength" : 14328,
            "byteOffset" : 57600
        }
    ],
    "buffers" : [
        {
            "byteLength" : 71928,
            "uri" : "data:application/octet-stream;base64,"
        }
    ]
}
