{
    "asset" : {
        "generator" : "Khronos glTF Blender I/O v1.5.17",
        "version" : "2.0"
    },
    "scene" : 0,
    "scenes" : [
        {
            "name" : "Scene",
            "nodes" : [
                0,
                1,
                2
            ]
        }
    ],
    "nodes" : [
        {
            "name" : "Light",
            "rotation" : [
                0.16907575726509094,
                0.7558803558349609,
                -0.27217137813568115,
                0.570947527885437
            ],
            "translation" : [
                4.076245307922363,
                5.903861999511719,
                -1.0054539442062378
            ]
        },
        {
            "name" : "Camera",
            "rotation" : [
                0.483536034822464,
                0.33687159419059753,
                -0.20870360732078552,
                0.7804827094078064
            ],
            "translation" : [
                7.358891487121582,
                4.958309173583984,
                6.925790786743164
            ]
        },
        {
            "mesh" : 0,
            "name" : "11706_stuffed_animal_L2",
            "rotation" : [
                0.7071068286895752,
                0,
                0,
                0.7071067094802856
            ]
        }
    ],
    "materials" : [
        {
            "doubleSided" : true,
            "name" : "toy_dog_parts",
            "pbrMetallicRoughness" : {
                "baseColorFactor" : [
                    0.019600000232458115,
                    0.019600000232458115,
                    0.019600000232458115,
                    1
                ],
                "metallicFactor" : 0,
                "roughnessFactor" : 0.7666666507720947
            }
        },
        {
            "doubleSided" : true,
            "name" : "toy_dog_body",
            "pbrMetallicRoughness" : {
                "baseColorTexture" : {
                    "index" : 0
                },
                "metallicFactor" : 0,
                "roughnessFactor" : 0.8945907354354858
            }
        }
    ],
    "meshes" : [
        {
            "name" : "11706_stuffed_animal_L2",
            "primitives" : [
                {
                    "attributes" : {
                        "POSITION" : 0,
                        "NORMAL" : 1,
                        "TEXCOORD_0" : 2
                    },
                    "indices" : 3,
                    "material" : 0
                },
                {
                    "attributes" : {
                        "POSITION" : 4,
                        "NORMAL" : 5,
                        "TEXCOORD_0" : 6
                    },
                    "indices" : 7,
                    "material" : 1
                }
            ]
        }
    ],
    "textures" : [
        {
            "sampler" : 0,
            "source" : 0
        }
    ],
    "images" : [
        {
            "bufferView" : 8,
            "mimeType" : "image/jpeg",
            "name" : "11706_toy_dog_diffuse_v2"
        }
    ],
    "accessors" : [
        {
            "bufferView" : 0,
            "componentType" : 5126,
            "count" : 4260,
            "max" : [
                2.9291000366210938,
                20.12849998474121,
                12.236599922180176
            ],
            "min" : [
                -2.9159998893737793,
                14.965299606323242,
                7.629899978637695
            ],
            "type" : "VEC3"
        },
        {
            "bufferView" : 1,
            "componentType" : 5126,
            "count" : 4260,
            "type" : "VEC3"
        },
        {
            "bufferView" : 2,
            "componentType" : 5126,
            "count" : 4260,
            "type" : "VEC2"
        },
        {
            "bufferView" : 3,
            "componentType" : 5123,
            "count" : 24192,
            "type" : "SCALAR"
        },
        {
            "bufferView" : 4,
            "componentType" : 5126,
            "count" : 17004,
            "max" : [
                12.641799926757812,
                23.87529945373535,
                11.79259967803955
            ],
            "min" : [
                -12.641900062561035,
                -0.07649999856948853,
                -12.207799911499023
            ],
            "type" : "VEC3"
        },
        {
            "bufferView" : 5,
            "componentType" : 5126,
            "count" : 17004,
            "type" : "VEC3"
        },
        {
            "bufferView" : 6,
            "componentType" : 5126,
            "count" : 17004,
            "type" : "VEC2"
        },
        {
            "bufferView" : 7,
            "componentType" : 5123,
            "count" : 96768,
            "type" : "SCALAR"
        }
    ],
    "bufferViews" : [
        {
            "buffer" : 0,
            "byteLength" : 51120,
            "byteOffset" : 0
        },
        {
            "buffer" : 0,
            "byteLength" : 51120,
            "byteOffset" : 51120
        },
        {
            "buffer" : 0,
            "byteLength" : 34080,
            "byteOffset" : 102240
        },
        {
            "buffer" : 0,
            "byteLength" : 48384,
            "byteOffset" : 136320
        },
        {
            "buffer" : 0,
            "byteLength" : 204048,
            "byteOffset" : 184704
        },
        {
            "buffer" : 0,
            "byteLength" : 204048,
            "byteOffset" : 388752
        },
        {
            "buffer" : 0,
            "byteLength" : 136032,
            "byteOffset" : 592800
        },
        {
            "buffer" : 0,
            "byteLength" : 193536,
            "byteOffset" : 728832
        },
        {
            "buffer" : 0,
            "byteLength" : 881932,
            "byteOffset" : 922368
        }
    ],
    "samplers" : [
        {
            "magFilter" : 9729,
            "minFilter" : 9987
        }
    ],
    "buffers" : [
        {
            "byteLength" : 1804300,
            "uri" : "data:application/octet-stream;base64,"
        }
    ]
}
