{
    "asset" : {
        "generator" : "Khronos glTF Blender I/O v1.5.17",
        "version" : "2.0"
    },
    "scene" : 0,
    "scenes" : [
        {
            "name" : "Scene",
            "nodes" : [
                0,
                1
            ]
        }
    ],
    "nodes" : [
        {
            "mesh" : 0,
            "name" : "Tiger"
        },
        {
            "mesh" : 1,
            "name" : "White_Tiger"
        }
    ],
    "materials" : [
        {
            "doubleSided" : true,
            "name" : "Tiger",
            "pbrMetallicRoughness" : {}
        },
        {
            "doubleSided" : true,
            "name" : "White_Tiger",
            "pbrMetallicRoughness" : {}
        }
    ],
    "meshes" : [
        {
            "name" : "Cylinder.014",
            "primitives" : [
                {
                    "attributes" : {
                        "POSITION" : 0,
                        "NORMAL" : 1,
                        "TANGENT" : 2,
                        "TEXCOORD_0" : 3,
                        "TEXCOORD_1" : 4
                    },
                    "indices" : 5,
                    "material" : 0
                }
            ]
        },
        {
            "name" : "Cylinder.001",
            "primitives" : [
                {
                    "attributes" : {
                        "POSITION" : 6,
                        "NORMAL" : 7,
                        "TANGENT" : 8,
                        "TEXCOORD_0" : 9,
                        "TEXCOORD_1" : 10
                    },
                    "indices" : 11,
                    "material" : 1
                }
            ]
        }
    ],
    "accessors" : [
        {
            "bufferView" : 0,
            "componentType" : 5126,
            "count" : 780,
            "max" : [
                0.7691586017608643,
                3.6712543964385986,
                2.291266679763794
            ],
            "min" : [
                -0.7691586017608643,
                -0.0004287119663786143,
                -4.443782329559326
            ],
            "type" : "VEC3"
        },
        {
            "bufferView" : 1,
            "componentType" : 5126,
            "count" : 780,
            "type" : "VEC3"
        },
        {
            "bufferView" : 2,
            "componentType" : 5126,
            "count" : 780,
            "type" : "VEC4"
        },
        {
            "bufferView" : 3,
            "componentType" : 5126,
            "count" : 780,
            "type" : "VEC2"
        },
        {
            "bufferView" : 4,
            "componentType" : 5126,
            "count" : 780,
            "type" : "VEC2"
        },
        {
            "bufferView" : 5,
            "componentType" : 5123,
            "count" : 3588,
            "type" : "SCALAR"
        },
        {
            "bufferView" : 6,
            "componentType" : 5126,
            "count" : 390,
            "max" : [
                0.7691586017608643,
                3.6712543964385986,
                2.291266679763794
            ],
            "min" : [
                0,
                -0.0004287119663786143,
                -4.443782329559326
            ],
            "type" : "VEC3"
        },
        {
            "bufferView" : 7,
            "componentType" : 5126,
            "count" : 390,
            "type" : "VEC3"
        },
        {
            "bufferView" : 8,
            "componentType" : 5126,
            "count" : 390,
            "type" : "VEC4"
        },
        {
            "bufferView" : 9,
            "componentType" : 5126,
            "count" : 390,
            "type" : "VEC2"
        },
        {
            "bufferView" : 10,
            "componentType" : 5126,
            "count" : 390,
            "type" : "VEC2"
        },
        {
            "bufferView" : 11,
            "componentType" : 5123,
            "count" : 1794,
            "type" : "SCALAR"
        }
    ],
    "bufferViews" : [
        {
            "buffer" : 0,
            "byteLength" : 9360,
            "byteOffset" : 0
        },
        {
            "buffer" : 0,
            "byteLength" : 9360,
            "byteOffset" : 9360
        },
        {
            "buffer" : 0,
            "byteLength" : 12480,
            "byteOffset" : 18720
        },
        {
            "buffer" : 0,
            "byteLength" : 6240,
            "byteOffset" : 31200
        },
        {
            "buffer" : 0,
            "byteLength" : 6240,
            "byteOffset" : 37440
        },
        {
            "buffer" : 0,
            "byteLength" : 7176,
            "byteOffset" : 43680
        },
        {
            "buffer" : 0,
            "byteLength" : 4680,
            "byteOffset" : 50856
        },
        {
            "buffer" : 0,
            "byteLength" : 4680,
            "byteOffset" : 55536
        },
        {
            "buffer" : 0,
            "byteLength" : 6240,
            "byteOffset" : 60216
        },
        {
            "buffer" : 0,
            "byteLength" : 3120,
            "byteOffset" : 66456
        },
        {
            "buffer" : 0,
            "byteLength" : 3120,
            "byteOffset" : 69576
        },
        {
            "buffer" : 0,
            "byteLength" : 3588,
            "byteOffset" : 72696
        }
    ],
    "buffers" : [
        {
            "byteLength" : 76284,
            "uri" : "data:application/octet-stream;base64,"
        }
    ]
}
